<?xml version="1.0" encoding="utf-8"?>
<!-- Generator: Adobe Illustrator 24.2.3, SVG Export Plug-In . SVG Version: 6.00 Build 0)  -->
<svg version="1.1" id="Layer_1" xmlns="http://www.w3.org/2000/svg" xmlns:xlink="http://www.w3.org/1999/xlink" x="0px" y="0px"
	 viewBox="0 0 50 50" style="enable-background:new 0 0 50 50;" xml:space="preserve">
<style type="text/css">
	.st0{fill:#EA3323;}
</style>
<g>
	<g transform="scale(5.12,5.12)">
		<path class="st0" d="M8.8,2.8C8.7,2.4,8.3,2.1,7.9,2C7.2,1.9,6.1,1.8,4.8,1.8C3.5,1.8,2.3,1.9,1.6,2C1.2,2.1,0.8,2.4,0.7,2.8
			C0.7,3.3,0.6,4,0.6,4.9s0.1,1.6,0.2,2.1c0.1,0.4,0.4,0.7,0.9,0.8C2.3,7.9,3.5,8,4.8,8s2.5-0.1,3.1-0.2c0.4-0.1,0.8-0.4,0.9-0.8
			C8.9,6.4,9,5.7,9,4.9C9,4,8.9,3.3,8.8,2.8z M3.7,6.2V3.5l2.4,1.4L3.7,6.2z"/>
	</g>
</g>
</svg>
